<svg xmlns="http://www.w3.org/2000/svg" viewBox="0 0 32 32"><defs><style>.cls-1{fill:#fff;}.cls-2{fill:#999;}</style></defs><title>资源 48</title><g id="图层_2" data-name="图层 2"><g id="图层_1-2" data-name="图层 1"><circle class="cls-1" cx="16" cy="16" r="15"/><path class="cls-2" d="M16,2A14,14,0,1,1,2,16,14,14,0,0,1,16,2m0-2A16,16,0,1,0,32,16,16,16,0,0,0,16,0Z"/><polygon class="cls-2" points="11.02 21.11 18.09 10.52 20.12 11.88 13.06 22.47 11.29 22.93 11.02 21.11"/><path class="cls-2" d="M18.22,11.21l1.21.8L12.75,22l-1.05.27-.15-1.07,6.67-10M18,9.83,10.5,21l.37,2.55,2.5-.64,7.44-11.17L18,9.83Z"/><path class="cls-2" d="M21.25,11.13a2,2,0,0,0-.43-2.49,2,2,0,0,0-2.46.56Z"/></g></g></svg>